<svg width="13" height="12" viewBox="0 0 13 12" fill="none" xmlns="http://www.w3.org/2000/svg">
<path d="M9.17656 0.439897L8.04095 1.57542L11.0911 4.62537L12.2268 3.48985C12.8133 2.90332 12.8133 1.95314 12.2268 1.36661L11.3023 0.439897C10.7157 -0.146632 9.76548 -0.146632 9.17891 0.439897H9.17656ZM7.51069 2.10564L2.04146 7.57679C1.79744 7.82079 1.61912 8.12344 1.52058 8.45424L0.689987 11.2766C0.63133 11.476 0.685295 11.6895 0.830766 11.835C0.976236 11.9805 1.18975 12.0344 1.38684 11.9781L4.20944 11.1476C4.54027 11.0491 4.84294 10.8707 5.08696 10.6267L10.5609 5.1556L7.51069 2.10564Z" fill="#111827"/>
</svg>
