<svg width="13" height="12" viewBox="0 0 13 12" fill="none" xmlns="http://www.w3.org/2000/svg">
<path d="M12.3115 2.04935C12.7801 1.58082 12.7801 0.81993 12.3115 0.3514C11.843 -0.117131 11.0821 -0.117131 10.6136 0.3514L6.66669 4.30205L2.71604 0.355148C2.24751 -0.113382 1.48662 -0.113382 1.01808 0.355148C0.549554 0.823678 0.549554 1.58457 1.01808 2.0531L4.96873 6L1.02183 9.95065C0.553303 10.4192 0.553303 11.1801 1.02183 11.6486C1.49036 12.1171 2.25126 12.1171 2.71979 11.6486L6.66669 7.69795L10.6173 11.6449C11.0859 12.1134 11.8468 12.1134 12.3153 11.6449C12.7838 11.1763 12.7838 10.4154 12.3153 9.9469L8.36464 6L12.3115 2.04935Z" fill="#111827"/>
</svg>
