<svg width="20" height="20" viewBox="0 0 20 20" fill="none" xmlns="http://www.w3.org/2000/svg">
<path d="M7.1529 2.76942C6.91228 2.1882 6.27794 1.87883 5.67171 2.04445L2.92183 2.79442C2.37811 2.94441 2 3.43814 2 4.00062C2 11.7315 8.26847 18 15.9994 18C16.5619 18 17.0556 17.6219 17.2056 17.0782L17.9555 14.3283C18.1212 13.7221 17.8118 13.0877 17.2306 12.8471L14.2307 11.5972C13.7214 11.3847 13.1308 11.5315 12.7839 11.9596L11.5215 13.5002C9.32155 12.4596 7.54038 10.6784 6.4998 8.47854L8.04036 7.21923C8.46846 6.86924 8.61533 6.28177 8.40284 5.77241L7.1529 2.77255V2.76942Z" fill="#111827"/>
</svg>
