<svg width="20" height="20" viewBox="0 0 20 20" fill="none" xmlns="http://www.w3.org/2000/svg">
<path d="M7.35161 14.5105C7.35161 14.5748 7.27742 14.6262 7.18387 14.6262C7.07742 14.6358 7.00323 14.5844 7.00323 14.5105C7.00323 14.4463 7.07742 14.3949 7.17097 14.3949C7.26774 14.3852 7.35161 14.4366 7.35161 14.5105ZM6.34839 14.3659C6.32581 14.4302 6.39032 14.5041 6.4871 14.5234C6.57097 14.5555 6.66774 14.5234 6.6871 14.4591C6.70645 14.3949 6.64516 14.321 6.54839 14.2921C6.46452 14.2696 6.37097 14.3017 6.34839 14.3659ZM7.77419 14.3113C7.68064 14.3338 7.61613 14.3949 7.62581 14.4688C7.63548 14.533 7.71935 14.5748 7.81613 14.5523C7.90968 14.5298 7.97419 14.4688 7.96452 14.4045C7.95484 14.3435 7.86774 14.3017 7.77419 14.3113ZM9.89677 2C5.42258 2 2 5.38305 2 9.83916C2 13.4021 4.25161 16.451 7.46774 17.5241C7.88064 17.598 8.02581 17.3442 8.02581 17.1354C8.02581 16.9362 8.01613 15.8374 8.01613 15.1627C8.01613 15.1627 5.75806 15.6446 5.28387 14.2053C5.28387 14.2053 4.91613 13.2704 4.3871 13.0294C4.3871 13.0294 3.64839 12.525 4.43871 12.5347C4.43871 12.5347 5.24194 12.5989 5.68387 13.3636C6.39032 14.6037 7.57419 14.2471 8.03548 14.035C8.10968 13.521 8.31935 13.1644 8.55161 12.9523C6.74839 12.7531 4.92903 12.4929 4.92903 9.40222C4.92903 8.51871 5.17419 8.07535 5.69032 7.5099C5.60645 7.30107 5.33226 6.44005 5.77419 5.32843C6.44839 5.1196 8 6.19588 8 6.19588C8.64516 6.01596 9.33871 5.92279 10.0258 5.92279C10.7129 5.92279 11.4065 6.01596 12.0516 6.19588C12.0516 6.19588 13.6032 5.11639 14.2774 5.32843C14.7194 6.44326 14.4452 7.30107 14.3613 7.5099C14.8774 8.07856 15.1935 8.52192 15.1935 9.40222C15.1935 12.5025 13.2935 12.7499 11.4903 12.9523C11.7871 13.2061 12.0387 13.6881 12.0387 14.4431C12.0387 15.5258 12.029 16.8655 12.029 17.1289C12.029 17.3378 12.1774 17.5916 12.5871 17.5177C15.8129 16.451 18 13.4021 18 9.83916C18 5.38305 14.371 2 9.89677 2ZM5.13548 13.0808C5.09355 13.113 5.10323 13.1869 5.15806 13.2479C5.20968 13.2993 5.28387 13.3218 5.32581 13.28C5.36774 13.2479 5.35806 13.174 5.30323 13.113C5.25161 13.0616 5.17742 13.0391 5.13548 13.0808ZM4.7871 12.8206C4.76452 12.8624 4.79677 12.9138 4.86129 12.9459C4.9129 12.978 4.97742 12.9684 5 12.9234C5.02258 12.8816 4.99032 12.8302 4.92581 12.7981C4.86129 12.7788 4.80968 12.7885 4.7871 12.8206ZM5.83226 13.9644C5.78065 14.0061 5.8 14.1025 5.87419 14.1635C5.94839 14.2374 6.04194 14.2471 6.08387 14.1957C6.12581 14.1539 6.10645 14.0575 6.04194 13.9965C5.97097 13.9226 5.87419 13.9129 5.83226 13.9644ZM5.46452 13.4921C5.4129 13.5242 5.4129 13.6077 5.46452 13.6816C5.51613 13.7555 5.60323 13.7876 5.64516 13.7555C5.69677 13.7138 5.69677 13.6302 5.64516 13.5563C5.6 13.4824 5.51613 13.4503 5.46452 13.4921Z" fill="#111827"/>
</svg>
