<svg width="32" height="44" viewBox="0 0 32 44" fill="none" xmlns="http://www.w3.org/2000/svg">
<path d="M0 0L5.98654 3.10094V8.74293C10.0781 6.50337 17.4859 3.91925 26.0456 8.74293V3.10094L32 0L29.0442 12.2746L26.0456 15.2463V19.1225L28.4874 28.4253L25.2783 35.1871L25.5744 36.3069L22.2079 38.8479L22.3617 39.6662L16.0215 43.0686L9.69044 39.6662L9.84499 38.8479L6.4603 36.3069L6.75802 35.1871L3.53163 28.4253L5.98654 19.1225V15.2463L2.97174 12.2746L0 0Z" fill="#EED9C3"/>
<path d="M5.98654 3.10094L0 0L2.97174 12.2746L5.98654 15.2463V17.1844V19.1225L6.68355 20.4361L7.38056 21.7497C9.15042 15.3411 13.8356 17.2131 15.9785 18.9071C18.1098 17.2131 22.8988 15.3411 24.6591 21.7497L26.0456 19.1225V15.2463L29.0442 12.2746L32 0L26.0456 3.10094V8.74293C17.4859 3.91925 10.0781 6.50336 5.98654 8.74293V5.92194V3.10094Z" fill="#E3B261"/>
<path d="M9.69043 39.6662L16.0215 43.0686L22.3616 39.6662L22.2079 38.8479L19.3845 23.8169L15.9785 22.1372L12.6837 23.8169L9.84497 38.8479L9.69043 39.6662Z" fill="#E6E6E6"/>
<path d="M9.34588 25.4535L6.758 35.187L3.53162 28.4253L5.98653 19.1224L7.38055 21.7496L9.34588 25.4535Z" fill="#E6E6E6"/>
<path d="M22.7043 25.4535L25.2783 35.187L28.4873 28.4253L26.0456 19.1224L24.6591 21.7496L22.7043 25.4535Z" fill="#E6E6E6"/>
<circle cx="20.1561" cy="19.7254" r="0.990579" fill="#353535"/>
<path d="M9.8627 20.4145C9.8627 19.4869 10.6147 18.7349 11.5424 18.7349H13.5838C13.9549 18.7349 14.2557 19.0357 14.2557 19.4067C14.2557 20.891 13.0525 22.0942 11.5682 22.0942H10.7413C10.2561 22.0942 9.8627 21.7009 9.8627 21.2156V20.4145Z" fill="#A78347"/>
<path d="M14.7726 24.1615H17.1844V25.2813C17.1844 25.9473 16.6445 26.4872 15.9785 26.4872C15.3125 26.4872 14.7726 25.9473 14.7726 25.2813V24.1615Z" fill="#353535"/>
<path d="M12.6837 23.8601L9.3459 25.4967L6.75802 35.2302L6.4603 36.35L9.84499 38.8911L12.6837 23.8601Z" fill="#D5D5D5"/>
<path d="M19.3845 23.8601L22.7044 25.4967L25.2783 35.2302L25.5744 36.35L22.2079 38.8911L19.3845 23.8601Z" fill="#D5D5D5"/>
</svg>
