<svg width="20" height="20" viewBox="0 0 20 20" fill="none" xmlns="http://www.w3.org/2000/svg">
<path d="M10.9875 19.5506C13.125 17.0363 18 10.9424 18 7.51946C18 3.36809 14.4167 0 10 0C5.58333 0 2 3.36809 2 7.51946C2 10.9424 6.875 17.0363 9.0125 19.5506C9.525 20.1498 10.475 20.1498 10.9875 19.5506ZM10 5.01297C10.7072 5.01297 11.3855 5.27705 11.8856 5.74711C12.3857 6.21716 12.6667 6.8547 12.6667 7.51946C12.6667 8.18422 12.3857 8.82176 11.8856 9.29181C11.3855 9.76187 10.7072 10.0259 10 10.0259C9.29276 10.0259 8.61448 9.76187 8.11438 9.29181C7.61428 8.82176 7.33333 8.18422 7.33333 7.51946C7.33333 6.8547 7.61428 6.21716 8.11438 5.74711C8.61448 5.27705 9.29276 5.01297 10 5.01297Z" fill="#111827"/>
</svg>
